<svg xmlns="http://www.w3.org/2000/svg" width="920" height="250" viewBox="0 0 920 250">
<style>
  .fl { animation: fl 4s ease-in-out infinite; }
  @keyframes fl { 0%,100% { transform: translateY(0); } 50% { transform: translateY(-7px); } }
  .sh { animation: sh 4s ease-in-out infinite; transform-box: fill-box; transform-origin: center; }
  @keyframes sh { 0%,100% { transform: scaleX(1); opacity: .45; } 50% { transform: scaleX(.8); opacity: .2; } }
  .fp { animation: fp 9s cubic-bezier(.45,0,.2,1) infinite; transform-box: fill-box; transform-origin: center; }
  @keyframes fp { 0%,78% { transform: scaleX(1) skewY(0); } 83% { transform: scaleX(.02) skewY(-12deg); } 88% { transform: scaleX(-1) skewY(0); }
                  93% { transform: scaleX(.02) skewY(12deg); } 98%,100% { transform: scaleX(1) skewY(0); } }
  .glow { animation: glow 6s ease-in-out infinite; }
  @keyframes glow { 0%,100% { opacity: .35; } 50% { opacity: .6; } }

  .bs { animation: bs 4.5s ease-in-out infinite; }
  @keyframes bs { 0%,40% { transform: translateX(0); } 100% { transform: translateX(720px); } }
</style>
<defs>
  <linearGradient id="bg" x1="0" y1="0" x2="1" y2="1"><stop offset="0" stop-color="#0b0f1a"/><stop offset=".6" stop-color="#120d2b"/><stop offset="1" stop-color="#0b1a2b"/></linearGradient>
  <linearGradient id="face" x1="0" y1="0" x2="1" y2="1"><stop offset="0" stop-color="#161d2e"/><stop offset="1" stop-color="#0f1420"/></linearGradient>
  <linearGradient id="gloss" x1="0" y1="0" x2="0" y2="1"><stop offset="0" stop-color="#fff" stop-opacity=".2"/><stop offset=".45" stop-color="#fff" stop-opacity=".03"/><stop offset=".5" stop-color="#fff" stop-opacity="0"/></linearGradient>
  <radialGradient id="o1"><stop offset="0" stop-color="#7C5CFF" stop-opacity=".55"/><stop offset="1" stop-color="#7C5CFF" stop-opacity="0"/></radialGradient>
  <radialGradient id="o2"><stop offset="0" stop-color="#22D3EE" stop-opacity=".35"/><stop offset="1" stop-color="#22D3EE" stop-opacity="0"/></radialGradient>
  <pattern id="dots" width="24" height="24" patternUnits="userSpaceOnUse"><circle cx="2" cy="2" r="1.1" fill="#fff" fill-opacity=".06"/></pattern>
  <filter id="bl" x="-20%" y="-200%" width="140%" height="500%"><feGaussianBlur stdDeviation="4"/></filter>
<clipPath id="c"><rect width="920" height="250" rx="20"/></clipPath></defs>
<g clip-path="url(#c)">
  <rect width="920" height="250" fill="url(#bg)"/>
  <rect width="920" height="250" fill="url(#dots)"/>
  <circle class="glow" cx="860" cy="50" r="260" fill="url(#o1)"/>
  <circle class="glow" style="animation-delay:-3s" cx="70" cy="220" r="230" fill="url(#o2)"/>
  <g transform="translate(28 26)"><g class="fl" style="animation-delay:-0.0s">
  <rect y="6" width="250" height="56" rx="14" fill="#05402d"/>
  <rect width="250" height="56" rx="14" fill="url(#face)"/>
  <rect x=".5" y=".5" width="249" height="55" rx="13.5" fill="none" stroke="#10B981" stroke-opacity=".45"/>
  <rect width="250" height="56" rx="14" fill="url(#gloss)"/>
  <text x="20" y="37" font-size="22">📦</text>
  <text x="62" y="38" font-family="'Segoe UI', -apple-system, Helvetica, Arial, sans-serif" font-size="26" font-weight="800" fill="#f4f7fb">17</text>
  <text x="104" y="37" font-family="'Segoe UI', -apple-system, Helvetica, Arial, sans-serif" font-size="14" fill="#a9b3c9">products built</text>
</g></g><g transform="translate(28 94)"><g class="fl" style="animation-delay:-0.4s">
  <rect y="6" width="250" height="56" rx="14" fill="#170079"/>
  <rect width="250" height="56" rx="14" fill="url(#face)"/>
  <rect x=".5" y=".5" width="249" height="55" rx="13.5" fill="none" stroke="#7C5CFF" stroke-opacity=".45"/>
  <rect width="250" height="56" rx="14" fill="url(#gloss)"/>
  <text x="20" y="37" font-size="22">🔨</text>
  <text x="62" y="38" font-family="'Segoe UI', -apple-system, Helvetica, Arial, sans-serif" font-size="26" font-weight="800" fill="#f4f7fb">362</text>
  <text x="120" y="37" font-family="'Segoe UI', -apple-system, Helvetica, Arial, sans-serif" font-size="13" fill="#a9b3c9">yearly contributions</text>
</g></g><g transform="translate(28 162)"><g class="fl" style="animation-delay:-0.8s">
  <rect y="6" width="250" height="56" rx="14" fill="#064d58"/>
  <rect width="250" height="56" rx="14" fill="url(#face)"/>
  <rect x=".5" y=".5" width="249" height="55" rx="13.5" fill="none" stroke="#22D3EE" stroke-opacity=".45"/>
  <rect width="250" height="56" rx="14" fill="url(#gloss)"/>
  <text x="20" y="37" font-size="22">🧠</text>
  <text x="62" y="38" font-family="'Segoe UI', -apple-system, Helvetica, Arial, sans-serif" font-size="26" font-weight="800" fill="#f4f7fb">7</text>
  <text x="88" y="37" font-family="'Segoe UI', -apple-system, Helvetica, Arial, sans-serif" font-size="14" fill="#a9b3c9">languages</text>
</g></g><text x="310" y="48" font-family="'Segoe UI', -apple-system, Helvetica, Arial, sans-serif" font-size="16" font-weight="700" fill="#f4f7fb">Languages across all my repos <tspan font-weight="400" fill="#8b95ab" font-size="13">(private included)</tspan></text>
<defs><clipPath id="bar"><rect x="310" y="70" width="580" height="34" rx="10"/></clipPath>
<linearGradient id="bsh" x1="0" x2="1"><stop offset="0" stop-color="#fff" stop-opacity="0"/><stop offset=".5" stop-color="#fff" stop-opacity=".35"/><stop offset="1" stop-color="#fff" stop-opacity="0"/></linearGradient></defs>
<g class="fl" style="animation-delay:-1s"><g clip-path="url(#bar)"><rect x="310.0" y="70" width="264.1" height="26" fill="#F7523F"/><rect x="310.0" y="96" width="264.1" height="8" fill="#851205"/><rect x="574.1" y="70" width="251.7" height="26" fill="#777BB4"/><rect x="574.1" y="96" width="251.7" height="8" fill="#2f3256"/><rect x="825.8" y="70" width="37.6" height="26" fill="#00B4AB"/><rect x="825.8" y="96" width="37.6" height="8" fill="#00514c"/><rect x="863.3" y="70" width="19.7" height="26" fill="#663399"/><rect x="863.3" y="96" width="19.7" height="8" fill="#2d1644"/><rect x="883.0" y="70" width="6.6" height="26" fill="#F1E05A"/><rect x="883.0" y="96" width="6.6" height="8" fill="#897b0b"/><rect x="889.6" y="70" width="0.4" height="26" fill="#6b7280"/><rect x="889.6" y="96" width="0.4" height="8" fill="#303339"/>
  <rect x="310" y="70" width="580" height="13.0" fill="#fff" fill-opacity=".14"/>
  <rect class="bs" x="190" y="70" width="120" height="34" fill="url(#bsh)"/></g></g>
<g transform="translate(310 140)"><rect width="14" height="14" y="-12" rx="4" fill="#F7523F"/><text x="22" font-family="'Segoe UI', -apple-system, Helvetica, Arial, sans-serif" font-size="14" font-weight="600" fill="#e5e7eb">Blade</text><text x="73.0" font-family="'JetBrains Mono', Consolas, 'Courier New', monospace" font-size="13" fill="#8b95ab">45.5%</text></g><g transform="translate(505 140)"><rect width="14" height="14" y="-12" rx="4" fill="#777BB4"/><text x="22" font-family="'Segoe UI', -apple-system, Helvetica, Arial, sans-serif" font-size="14" font-weight="600" fill="#e5e7eb">PHP</text><text x="55.8" font-family="'JetBrains Mono', Consolas, 'Courier New', monospace" font-size="13" fill="#8b95ab">43.4%</text></g><g transform="translate(700 140)"><rect width="14" height="14" y="-12" rx="4" fill="#00B4AB"/><text x="22" font-family="'Segoe UI', -apple-system, Helvetica, Arial, sans-serif" font-size="14" font-weight="600" fill="#e5e7eb">Dart</text><text x="64.4" font-family="'JetBrains Mono', Consolas, 'Courier New', monospace" font-size="13" fill="#8b95ab">6.5%</text></g><g transform="translate(310 174)"><rect width="14" height="14" y="-12" rx="4" fill="#663399"/><text x="22" font-family="'Segoe UI', -apple-system, Helvetica, Arial, sans-serif" font-size="14" font-weight="600" fill="#e5e7eb">CSS</text><text x="55.8" font-family="'JetBrains Mono', Consolas, 'Courier New', monospace" font-size="13" fill="#8b95ab">3.4%</text></g><g transform="translate(505 174)"><rect width="14" height="14" y="-12" rx="4" fill="#F1E05A"/><text x="22" font-family="'Segoe UI', -apple-system, Helvetica, Arial, sans-serif" font-size="14" font-weight="600" fill="#e5e7eb">JavaScript</text><text x="116.0" font-family="'JetBrains Mono', Consolas, 'Courier New', monospace" font-size="13" fill="#8b95ab">1.1%</text></g><g transform="translate(700 174)"><rect width="14" height="14" y="-12" rx="4" fill="#6b7280"/><text x="22" font-family="'Segoe UI', -apple-system, Helvetica, Arial, sans-serif" font-size="14" font-weight="600" fill="#e5e7eb">Other</text><text x="73.0" font-family="'JetBrains Mono', Consolas, 'Courier New', monospace" font-size="13" fill="#8b95ab">0.1%</text></g>
<text x="892" y="232" text-anchor="end" font-family="'JetBrains Mono', Consolas, 'Courier New', monospace" font-size="11" fill="#5b6478">updated 04 Oct 2026</text>
</g>
<rect x=".5" y=".5" width="919" height="249" rx="19.5" fill="none" stroke="#fff" stroke-opacity=".1"/>
</svg>