<svg xmlns="http://www.w3.org/2000/svg" width="440" height="230" viewBox="0 0 440 230">
<style>.g{animation:pulse 4s ease-in-out infinite}@keyframes pulse{0%,100%{opacity:.35}50%{opacity:.6}}</style>
<defs>
  <linearGradient id="b" x1="0" y1="0" x2="1" y2="1"><stop offset="0" stop-color="#131a2a"/><stop offset="1" stop-color="#0d1117"/></linearGradient>
  <radialGradient id="r" cx="1" cy="0" r="1"><stop offset="0" stop-color="#F59E0B" stop-opacity=".5"/><stop offset="1" stop-color="#F59E0B" stop-opacity="0"/></radialGradient>
  <clipPath id="c"><rect x=".5" y=".5" width="439" height="229" rx="16"/></clipPath>
</defs>
<g clip-path="url(#c)">
  <rect width="440" height="230" fill="url(#b)"/>
  <rect class="g" width="440" height="230" fill="url(#r)"/>
  <rect width="440" height="4" fill="#F59E0B"/>
</g>
<rect x=".5" y=".5" width="439" height="229" rx="16" fill="none" stroke="#ffffff" stroke-opacity=".1"/>
<rect x="26" y="26" width="46" height="46" rx="12" fill="#F59E0B" fill-opacity=".16" stroke="#F59E0B" stroke-opacity=".5"/>
<text x="49" y="57" text-anchor="middle" font-size="22">📈</text>
<text x="86" y="46" font-family="'Segoe UI', -apple-system, Helvetica, Arial, sans-serif" font-size="19" font-weight="700" fill="#f4f7fb">Motigraph CRM</text>
<text x="86" y="67" font-family="'JetBrains Mono', Consolas, 'Courier New', monospace" font-size="12" fill="#F59E0B" letter-spacing=".5">BUSINESS CRM</text>
<g font-family="'Segoe UI', -apple-system, Helvetica, Arial, sans-serif" font-size="14" fill="#a9b3c9"><text x="26" y="112">Bilingual AR/EN CRM for a creative studio — drag-and-drop</text><text x="26" y="134">deals pipeline, client health scores, client portal and</text><text x="26" y="156">real-time notifications.</text></g>
<g font-family="'Segoe UI', -apple-system, Helvetica, Arial, sans-serif" font-size="11.5" font-weight="600" fill="#e5e7eb"><rect x="26" y="186" width="96" height="24" rx="12" fill="#F59E0B" fill-opacity=".14" stroke="#F59E0B" stroke-opacity=".45"/><text x="74.0" y="202.5" text-anchor="middle">Laravel 13</text><rect x="130" y="186" width="118" height="24" rx="12" fill="#F59E0B" fill-opacity=".14" stroke="#F59E0B" stroke-opacity=".45"/><text x="189.0" y="202.5" text-anchor="middle">Bootstrap RTL</text><rect x="256" y="186" width="44" height="24" rx="12" fill="#F59E0B" fill-opacity=".14" stroke="#F59E0B" stroke-opacity=".45"/><text x="278.0" y="202.5" text-anchor="middle">PWA</text><rect x="308" y="186" width="66" height="24" rx="12" fill="#F59E0B" fill-opacity=".14" stroke="#F59E0B" stroke-opacity=".45"/><text x="341.0" y="202.5" text-anchor="middle">Kanban</text></g>
</svg>